<?xml version="1.0" encoding="UTF-8" standalone="no"?>
<!DOCTYPE svg PUBLIC "-//W3C//DTD SVG 1.1//EN"
 "http://www.w3.org/Graphics/SVG/1.1/DTD/svg11.dtd">
<!-- Generated by graphviz version 2.26.3 (20100126.1600)
 -->
<!-- Title: controllers_diagram Pages: 1 -->
<svg width="545pt" height="401pt"
 viewBox="0.00 0.00 545.00 401.26" xmlns="http://www.w3.org/2000/svg" xmlns:xlink="http://www.w3.org/1999/xlink">
<g id="graph1" class="graph" transform="scale(1 1) rotate(0) translate(4 397.257)">
<title>controllers_diagram</title>
<polygon fill="white" stroke="white" points="-4,5 -4,-397.257 542,-397.257 542,5 -4,5"/>
<!-- _diagram_info -->
<g id="node1" class="node"><title>_diagram_info</title>
<text text-anchor="start" x="329" y="-63.3" font-family="Times,serif" font-size="13.00">Controllers diagram</text>
<text text-anchor="start" x="329" y="-49.3" font-family="Times,serif" font-size="13.00">Date: Apr 23 2013 &#45; 13:04</text>
<text text-anchor="start" x="329" y="-35.3" font-family="Times,serif" font-size="13.00">Migration version: 20130423162618</text>
<text text-anchor="start" x="329" y="-21.3" font-family="Times,serif" font-size="13.00">Generated by RailRoady 1.1.0</text>
<text text-anchor="start" x="329" y="-7.3" font-family="Times,serif" font-size="13.00">http://railroady.prestonlee.com</text>
</g>
<!-- ApplicationController -->
<g id="node2" class="node"><title>ApplicationController</title>
<polyline fill="none" stroke="black" points="13,-106.283 197,-106.283 "/>
<path fill="none" stroke="black" d="M197,-106.283C203,-106.283 209,-112.283 209,-118.283"/>
<polyline fill="none" stroke="black" points="209,-118.283 209,-187.283 "/>
<path fill="none" stroke="black" d="M209,-187.283C209,-193.283 203,-199.283 197,-199.283"/>
<polyline fill="none" stroke="black" points="197,-199.283 13,-199.283 "/>
<path fill="none" stroke="black" d="M13,-199.283C7,-199.283 1,-193.283 1,-187.283"/>
<polyline fill="none" stroke="black" points="1,-187.283 1,-118.283 "/>
<path fill="none" stroke="black" d="M1,-118.283C1,-112.283 7,-106.283 13,-106.283"/>
<text text-anchor="middle" x="105" y="-182.683" font-family="Times,serif" font-size="14.00">ApplicationController</text>
<polyline fill="none" stroke="black" points="1,-176.283 209,-176.283 "/>
<text text-anchor="start" x="9" y="-159.683" font-family="Times,serif" font-size="14.00">_one_time_conditions_valid_20?</text>
<polyline fill="none" stroke="black" points="1,-153.283 209,-153.283 "/>
<polyline fill="none" stroke="black" points="1,-129.283 209,-129.283 "/>
<text text-anchor="start" x="9" y="-112.683" font-family="Times,serif" font-size="14.00">_layout</text>
</g>
<!-- FilmsController -->
<g id="node3" class="node"><title>FilmsController</title>
<polyline fill="none" stroke="black" points="248.227,-130.261 334.227,-130.261 "/>
<path fill="none" stroke="black" d="M334.227,-130.261C340.227,-130.261 346.227,-136.261 346.227,-142.261"/>
<polyline fill="none" stroke="black" points="346.227,-142.261 346.227,-301.261 "/>
<path fill="none" stroke="black" d="M346.227,-301.261C346.227,-307.261 340.227,-313.261 334.227,-313.261"/>
<polyline fill="none" stroke="black" points="334.227,-313.261 248.227,-313.261 "/>
<path fill="none" stroke="black" d="M248.227,-313.261C242.227,-313.261 236.227,-307.261 236.227,-301.261"/>
<polyline fill="none" stroke="black" points="236.227,-301.261 236.227,-142.261 "/>
<path fill="none" stroke="black" d="M236.227,-142.261C236.227,-136.261 242.227,-130.261 248.227,-130.261"/>
<text text-anchor="middle" x="291.227" y="-296.661" font-family="Times,serif" font-size="14.00">FilmsController</text>
<polyline fill="none" stroke="black" points="236.227,-290.261 346.227,-290.261 "/>
<text text-anchor="start" x="244.227" y="-273.661" font-family="Times,serif" font-size="14.00">create</text>
<text text-anchor="start" x="244.227" y="-258.661" font-family="Times,serif" font-size="14.00">destroy</text>
<text text-anchor="start" x="244.227" y="-243.661" font-family="Times,serif" font-size="14.00">edit</text>
<text text-anchor="start" x="244.227" y="-228.661" font-family="Times,serif" font-size="14.00">index</text>
<text text-anchor="start" x="244.227" y="-213.661" font-family="Times,serif" font-size="14.00">new</text>
<text text-anchor="start" x="244.227" y="-198.661" font-family="Times,serif" font-size="14.00">show</text>
<text text-anchor="start" x="244.227" y="-183.661" font-family="Times,serif" font-size="14.00">update</text>
<polyline fill="none" stroke="black" points="236.227,-177.261 346.227,-177.261 "/>
<polyline fill="none" stroke="black" points="236.227,-153.261 346.227,-153.261 "/>
<text text-anchor="start" x="244.227" y="-136.661" font-family="Times,serif" font-size="14.00">_layout</text>
</g>
<!-- ApplicationController&#45;&gt;FilmsController -->
<g id="edge2" class="edge"><title>ApplicationController&#45;&gt;FilmsController</title>
<path fill="none" stroke="black" d="M209.003,-191.306C218.334,-194.762 227.518,-198.164 236.172,-201.369"/>
</g>
<!-- HomeController -->
<g id="node4" class="node"><title>HomeController</title>
<polyline fill="none" stroke="black" points="159.569,-1.5 248.569,-1.5 "/>
<path fill="none" stroke="black" d="M248.569,-1.5C254.569,-1.5 260.569,-7.5 260.569,-13.5"/>
<polyline fill="none" stroke="black" points="260.569,-13.5 260.569,-82.5 "/>
<path fill="none" stroke="black" d="M260.569,-82.5C260.569,-88.5 254.569,-94.5 248.569,-94.5"/>
<polyline fill="none" stroke="black" points="248.569,-94.5 159.569,-94.5 "/>
<path fill="none" stroke="black" d="M159.569,-94.5C153.569,-94.5 147.569,-88.5 147.569,-82.5"/>
<polyline fill="none" stroke="black" points="147.569,-82.5 147.569,-13.5 "/>
<path fill="none" stroke="black" d="M147.569,-13.5C147.569,-7.5 153.569,-1.5 159.569,-1.5"/>
<text text-anchor="middle" x="204.069" y="-77.9" font-family="Times,serif" font-size="14.00">HomeController</text>
<polyline fill="none" stroke="black" points="147.569,-71.5 260.569,-71.5 "/>
<text text-anchor="start" x="155.569" y="-54.9" font-family="Times,serif" font-size="14.00">index</text>
<polyline fill="none" stroke="black" points="147.569,-48.5 260.569,-48.5 "/>
<polyline fill="none" stroke="black" points="147.569,-24.5 260.569,-24.5 "/>
<text text-anchor="start" x="155.569" y="-7.9" font-family="Times,serif" font-size="14.00">_layout</text>
</g>
<!-- ApplicationController&#45;&gt;HomeController -->
<g id="edge4" class="edge"><title>ApplicationController&#45;&gt;HomeController</title>
<path fill="none" stroke="black" d="M149.03,-106.214C152.647,-102.388 156.305,-98.5196 159.923,-94.6926"/>
</g>
<!-- PeopleController -->
<g id="node5" class="node"><title>PeopleController</title>
<polyline fill="none" stroke="black" points="88.6367,-208.757 181.637,-208.757 "/>
<path fill="none" stroke="black" d="M181.637,-208.757C187.637,-208.757 193.637,-214.757 193.637,-220.757"/>
<polyline fill="none" stroke="black" points="193.637,-220.757 193.637,-379.757 "/>
<path fill="none" stroke="black" d="M193.637,-379.757C193.637,-385.757 187.637,-391.757 181.637,-391.757"/>
<polyline fill="none" stroke="black" points="181.637,-391.757 88.6367,-391.757 "/>
<path fill="none" stroke="black" d="M88.6367,-391.757C82.6367,-391.757 76.6367,-385.757 76.6367,-379.757"/>
<polyline fill="none" stroke="black" points="76.6367,-379.757 76.6367,-220.757 "/>
<path fill="none" stroke="black" d="M76.6367,-220.757C76.6367,-214.757 82.6367,-208.757 88.6367,-208.757"/>
<text text-anchor="middle" x="135.137" y="-375.157" font-family="Times,serif" font-size="14.00">PeopleController</text>
<polyline fill="none" stroke="black" points="76.6367,-368.757 193.637,-368.757 "/>
<text text-anchor="start" x="84.6367" y="-352.157" font-family="Times,serif" font-size="14.00">create</text>
<text text-anchor="start" x="84.6367" y="-337.157" font-family="Times,serif" font-size="14.00">destroy</text>
<text text-anchor="start" x="84.6367" y="-322.157" font-family="Times,serif" font-size="14.00">edit</text>
<text text-anchor="start" x="84.6367" y="-307.157" font-family="Times,serif" font-size="14.00">index</text>
<text text-anchor="start" x="84.6367" y="-292.157" font-family="Times,serif" font-size="14.00">new</text>
<text text-anchor="start" x="84.6367" y="-277.157" font-family="Times,serif" font-size="14.00">show</text>
<text text-anchor="start" x="84.6367" y="-262.157" font-family="Times,serif" font-size="14.00">update</text>
<polyline fill="none" stroke="black" points="76.6367,-255.757 193.637,-255.757 "/>
<polyline fill="none" stroke="black" points="76.6367,-231.757 193.637,-231.757 "/>
<text text-anchor="start" x="84.6367" y="-215.157" font-family="Times,serif" font-size="14.00">_layout</text>
</g>
<!-- ApplicationController&#45;&gt;PeopleController -->
<g id="edge6" class="edge"><title>ApplicationController&#45;&gt;PeopleController</title>
<path fill="none" stroke="black" d="M114.535,-199.445C115.156,-202.483 115.792,-205.592 116.436,-208.747"/>
</g>
</g>
</svg>
