<?xml version="1.0" encoding="UTF-8" standalone="no"?>
<!DOCTYPE svg PUBLIC "-//W3C//DTD SVG 1.1//EN"
 "http://www.w3.org/Graphics/SVG/1.1/DTD/svg11.dtd">
<!-- Generated by graphviz version 2.26.3 (20100126.1600)
 -->
<!-- Title: models_diagram Pages: 1 -->
<svg width="924pt" height="610pt"
 viewBox="0.00 0.00 924.00 610.00" xmlns="http://www.w3.org/2000/svg" xmlns:xlink="http://www.w3.org/1999/xlink">
<g id="graph1" class="graph" transform="scale(1 1) rotate(0) translate(4 606)">
<title>models_diagram</title>
<polygon fill="white" stroke="white" points="-4,5 -4,-606 921,-606 921,5 -4,5"/>
<!-- _diagram_info -->
<g id="node1" class="node"><title>_diagram_info</title>
<text text-anchor="start" x="7.5" y="-549.3" font-family="Times,serif" font-size="13.00">Models diagram</text>
<text text-anchor="start" x="7.5" y="-535.3" font-family="Times,serif" font-size="13.00">Date: Apr 23 2013 &#45; 13:04</text>
<text text-anchor="start" x="7.5" y="-521.3" font-family="Times,serif" font-size="13.00">Migration version: 20130423162618</text>
<text text-anchor="start" x="7.5" y="-507.3" font-family="Times,serif" font-size="13.00">Generated by RailRoady 1.1.0</text>
<text text-anchor="start" x="7.5" y="-493.3" font-family="Times,serif" font-size="13.00">http://railroady.prestonlee.com</text>
</g>
<!-- Actor -->
<g id="node2" class="node"><title>Actor</title>
<polyline fill="none" stroke="black" points="274,-176.5 400,-176.5 "/>
<path fill="none" stroke="black" d="M400,-176.5C406,-176.5 412,-182.5 412,-188.5"/>
<polyline fill="none" stroke="black" points="412,-188.5 412,-255.5 "/>
<path fill="none" stroke="black" d="M412,-255.5C412,-261.5 406,-267.5 400,-267.5"/>
<polyline fill="none" stroke="black" points="400,-267.5 274,-267.5 "/>
<path fill="none" stroke="black" d="M274,-267.5C268,-267.5 262,-261.5 262,-255.5"/>
<polyline fill="none" stroke="black" points="262,-255.5 262,-188.5 "/>
<path fill="none" stroke="black" d="M262,-188.5C262,-182.5 268,-176.5 274,-176.5"/>
<text text-anchor="middle" x="337" y="-250.9" font-family="Times,serif" font-size="14.00">Actor</text>
<polyline fill="none" stroke="black" points="262,-244.5 412,-244.5 "/>
<text text-anchor="start" x="270" y="-227.9" font-family="Times,serif" font-size="14.00">id :integer</text>
<text text-anchor="start" x="270" y="-212.9" font-family="Times,serif" font-size="14.00">person_id :integer</text>
<text text-anchor="start" x="270" y="-197.9" font-family="Times,serif" font-size="14.00">occupation_type :string</text>
<text text-anchor="start" x="270" y="-182.9" font-family="Times,serif" font-size="14.00">primary :boolean</text>
</g>
<!-- Character -->
<g id="node3" class="node"><title>Character</title>
<polyline fill="none" stroke="black" points="87.5,-1 198.5,-1 "/>
<path fill="none" stroke="black" d="M198.5,-1C204.5,-1 210.5,-7 210.5,-13"/>
<polyline fill="none" stroke="black" points="210.5,-13 210.5,-125 "/>
<path fill="none" stroke="black" d="M210.5,-125C210.5,-131 204.5,-137 198.5,-137"/>
<polyline fill="none" stroke="black" points="198.5,-137 87.5,-137 "/>
<path fill="none" stroke="black" d="M87.5,-137C81.5,-137 75.5,-131 75.5,-125"/>
<polyline fill="none" stroke="black" points="75.5,-125 75.5,-13 "/>
<path fill="none" stroke="black" d="M75.5,-13C75.5,-7 81.5,-1 87.5,-1"/>
<text text-anchor="middle" x="143" y="-120.4" font-family="Times,serif" font-size="14.00">Character</text>
<polyline fill="none" stroke="black" points="75.5,-114 210.5,-114 "/>
<text text-anchor="start" x="83.5" y="-97.4" font-family="Times,serif" font-size="14.00">id :integer</text>
<text text-anchor="start" x="83.5" y="-82.4" font-family="Times,serif" font-size="14.00">film_id :integer</text>
<text text-anchor="start" x="83.5" y="-67.4" font-family="Times,serif" font-size="14.00">actor_id :integer</text>
<text text-anchor="start" x="83.5" y="-52.4" font-family="Times,serif" font-size="14.00">name :string</text>
<text text-anchor="start" x="83.5" y="-37.4" font-family="Times,serif" font-size="14.00">biography :text</text>
<text text-anchor="start" x="83.5" y="-22.4" font-family="Times,serif" font-size="14.00">created_at :datetime</text>
<text text-anchor="start" x="83.5" y="-7.4" font-family="Times,serif" font-size="14.00">updated_at :datetime</text>
</g>
<!-- Actor&#45;&gt;Character -->
<g id="edge2" class="edge"><title>Actor&#45;&gt;Character</title>
<path fill="none" stroke="#6efa1e" d="M272.66,-171.258C255.367,-157.619 236.505,-142.744 218.658,-128.668"/>
<ellipse fill="none" stroke="#6efa1e" cx="275.916" cy="-173.825" rx="4.00002" ry="4.00002"/>
<polygon fill="#6efa1e" stroke="#6efa1e" points="218.39,-128.457 213.325,-118.732 214.464,-125.361 210.539,-122.265 210.539,-122.265 210.539,-122.265 214.464,-125.361 207.752,-125.798 218.39,-128.457 218.39,-128.457"/>
</g>
<!-- Director -->
<g id="node4" class="node"><title>Director</title>
<polyline fill="none" stroke="black" points="442,-176.5 568,-176.5 "/>
<path fill="none" stroke="black" d="M568,-176.5C574,-176.5 580,-182.5 580,-188.5"/>
<polyline fill="none" stroke="black" points="580,-188.5 580,-255.5 "/>
<path fill="none" stroke="black" d="M580,-255.5C580,-261.5 574,-267.5 568,-267.5"/>
<polyline fill="none" stroke="black" points="568,-267.5 442,-267.5 "/>
<path fill="none" stroke="black" d="M442,-267.5C436,-267.5 430,-261.5 430,-255.5"/>
<polyline fill="none" stroke="black" points="430,-255.5 430,-188.5 "/>
<path fill="none" stroke="black" d="M430,-188.5C430,-182.5 436,-176.5 442,-176.5"/>
<text text-anchor="middle" x="505" y="-250.9" font-family="Times,serif" font-size="14.00">Director</text>
<polyline fill="none" stroke="black" points="430,-244.5 580,-244.5 "/>
<text text-anchor="start" x="438" y="-227.9" font-family="Times,serif" font-size="14.00">id :integer</text>
<text text-anchor="start" x="438" y="-212.9" font-family="Times,serif" font-size="14.00">person_id :integer</text>
<text text-anchor="start" x="438" y="-197.9" font-family="Times,serif" font-size="14.00">occupation_type :string</text>
<text text-anchor="start" x="438" y="-182.9" font-family="Times,serif" font-size="14.00">primary :boolean</text>
</g>
<!-- Film -->
<g id="node5" class="node"><title>Film</title>
<polyline fill="none" stroke="black" points="243.5,-458 364.5,-458 "/>
<path fill="none" stroke="black" d="M364.5,-458C370.5,-458 376.5,-464 376.5,-470"/>
<polyline fill="none" stroke="black" points="376.5,-470 376.5,-582 "/>
<path fill="none" stroke="black" d="M376.5,-582C376.5,-588 370.5,-594 364.5,-594"/>
<polyline fill="none" stroke="black" points="364.5,-594 243.5,-594 "/>
<path fill="none" stroke="black" d="M243.5,-594C237.5,-594 231.5,-588 231.5,-582"/>
<polyline fill="none" stroke="black" points="231.5,-582 231.5,-470 "/>
<path fill="none" stroke="black" d="M231.5,-470C231.5,-464 237.5,-458 243.5,-458"/>
<text text-anchor="middle" x="304" y="-577.4" font-family="Times,serif" font-size="14.00">Film</text>
<polyline fill="none" stroke="black" points="231.5,-571 376.5,-571 "/>
<text text-anchor="start" x="239.5" y="-554.4" font-family="Times,serif" font-size="14.00">id :integer</text>
<text text-anchor="start" x="239.5" y="-539.4" font-family="Times,serif" font-size="14.00">title :string</text>
<text text-anchor="start" x="239.5" y="-524.4" font-family="Times,serif" font-size="14.00">length :string</text>
<text text-anchor="start" x="239.5" y="-509.4" font-family="Times,serif" font-size="14.00">synopsis :text</text>
<text text-anchor="start" x="239.5" y="-494.4" font-family="Times,serif" font-size="14.00">release_date :datetime</text>
<text text-anchor="start" x="239.5" y="-479.4" font-family="Times,serif" font-size="14.00">created_at :datetime</text>
<text text-anchor="start" x="239.5" y="-464.4" font-family="Times,serif" font-size="14.00">updated_at :datetime</text>
</g>
<!-- Film&#45;&gt;Character -->
<g id="edge18" class="edge"><title>Film&#45;&gt;Character</title>
<path fill="none" stroke="#ec0977" d="M226.234,-452.685C225.153,-451.78 224.075,-450.885 223,-450 212.43,-441.298 208.295,-441.026 198,-432 182.397,-418.319 178.474,-414.583 166,-398 125.632,-344.336 106.741,-332.766 89,-268 78.1972,-228.564 79.5314,-215.777 89,-176 91.3552,-166.106 94.7797,-156.089 98.7791,-146.357"/>
<ellipse fill="none" stroke="#ec0977" cx="229.399" cy="-455.369" rx="4.00002" ry="4.00002"/>
<polygon fill="#ec0977" stroke="#ec0977" points="98.8018,-146.305 106.904,-138.915 100.788,-141.716 102.774,-137.128 102.774,-137.128 102.774,-137.128 100.788,-141.716 98.644,-135.34 98.8018,-146.305 98.8018,-146.305"/>
</g>
<!-- FilmOccupation -->
<g id="node6" class="node"><title>FilmOccupation</title>
<polyline fill="none" stroke="black" points="110,-184 232,-184 "/>
<path fill="none" stroke="black" d="M232,-184C238,-184 244,-190 244,-196"/>
<polyline fill="none" stroke="black" points="244,-196 244,-248 "/>
<path fill="none" stroke="black" d="M244,-248C244,-254 238,-260 232,-260"/>
<polyline fill="none" stroke="black" points="232,-260 110,-260 "/>
<path fill="none" stroke="black" d="M110,-260C104,-260 98,-254 98,-248"/>
<polyline fill="none" stroke="black" points="98,-248 98,-196 "/>
<path fill="none" stroke="black" d="M98,-196C98,-190 104,-184 110,-184"/>
<text text-anchor="middle" x="171" y="-243.4" font-family="Times,serif" font-size="14.00">FilmOccupation</text>
<polyline fill="none" stroke="black" points="98,-237 244,-237 "/>
<text text-anchor="start" x="106" y="-220.4" font-family="Times,serif" font-size="14.00">id :integer</text>
<text text-anchor="start" x="106" y="-205.4" font-family="Times,serif" font-size="14.00">film_id :integer</text>
<text text-anchor="start" x="106" y="-190.4" font-family="Times,serif" font-size="14.00">occupation_id :integer</text>
</g>
<!-- Film&#45;&gt;FilmOccupation -->
<g id="edge8" class="edge"><title>Film&#45;&gt;FilmOccupation</title>
<path fill="none" stroke="#887c67" d="M230.929,-451.678C212.133,-430.928 195.602,-410.626 190,-398 172.077,-357.602 168.294,-307.053 168.422,-270.506"/>
<ellipse fill="none" stroke="#887c67" cx="233.854" cy="-454.877" rx="4.00002" ry="4.00002"/>
<polygon fill="#887c67" stroke="#887c67" points="168.427,-270.114 173.063,-260.177 168.495,-265.115 168.564,-260.115 168.564,-260.115 168.564,-260.115 168.495,-265.115 164.064,-260.054 168.427,-270.114 168.427,-270.114"/>
</g>
<!-- Genre -->
<g id="node7" class="node"><title>Genre</title>
<polyline fill="none" stroke="black" points="211,-321.5 273,-321.5 "/>
<path fill="none" stroke="black" d="M273,-321.5C279,-321.5 285,-327.5 285,-333.5"/>
<polyline fill="none" stroke="black" points="285,-333.5 285,-370.5 "/>
<path fill="none" stroke="black" d="M285,-370.5C285,-376.5 279,-382.5 273,-382.5"/>
<polyline fill="none" stroke="black" points="273,-382.5 211,-382.5 "/>
<path fill="none" stroke="black" d="M211,-382.5C205,-382.5 199,-376.5 199,-370.5"/>
<polyline fill="none" stroke="black" points="199,-370.5 199,-333.5 "/>
<path fill="none" stroke="black" d="M199,-333.5C199,-327.5 205,-321.5 211,-321.5"/>
<text text-anchor="middle" x="242" y="-365.9" font-family="Times,serif" font-size="14.00">Genre</text>
<polyline fill="none" stroke="black" points="199,-359.5 285,-359.5 "/>
<text text-anchor="start" x="207" y="-342.9" font-family="Times,serif" font-size="14.00">id :integer</text>
<text text-anchor="start" x="207" y="-327.9" font-family="Times,serif" font-size="14.00">name :string</text>
</g>
<!-- Film&#45;&gt;Genre -->
<g id="edge20" class="edge"><title>Film&#45;&gt;Genre</title>
<path fill="none" stroke="#a3b791" d="M262.27,-448.66C259.965,-443.099 257.843,-437.511 256,-432 251.802,-419.444 248.799,-405.336 246.681,-392.503"/>
<polygon fill="#a3b791" stroke="#a3b791" points="262.331,-448.799 262.175,-459.764 264.318,-453.388 266.304,-457.976 266.304,-457.976 266.304,-457.976 264.318,-453.388 270.434,-456.188 262.331,-448.799 262.331,-448.799"/>
<polygon fill="#a3b791" stroke="#a3b791" points="246.669,-392.426 249.614,-381.863 245.917,-387.483 245.166,-382.54 245.166,-382.54 245.166,-382.54 245.917,-387.483 240.717,-383.216 246.669,-392.426 246.669,-392.426"/>
</g>
<!-- Occupation -->
<g id="node8" class="node"><title>Occupation</title>
<polyline fill="none" stroke="black" points="424,-306.5 550,-306.5 "/>
<path fill="none" stroke="black" d="M550,-306.5C556,-306.5 562,-312.5 562,-318.5"/>
<polyline fill="none" stroke="black" points="562,-318.5 562,-385.5 "/>
<path fill="none" stroke="black" d="M562,-385.5C562,-391.5 556,-397.5 550,-397.5"/>
<polyline fill="none" stroke="black" points="550,-397.5 424,-397.5 "/>
<path fill="none" stroke="black" d="M424,-397.5C418,-397.5 412,-391.5 412,-385.5"/>
<polyline fill="none" stroke="black" points="412,-385.5 412,-318.5 "/>
<path fill="none" stroke="black" d="M412,-318.5C412,-312.5 418,-306.5 424,-306.5"/>
<text text-anchor="middle" x="487" y="-380.9" font-family="Times,serif" font-size="14.00">Occupation</text>
<polyline fill="none" stroke="black" points="412,-374.5 562,-374.5 "/>
<text text-anchor="start" x="420" y="-357.9" font-family="Times,serif" font-size="14.00">id :integer</text>
<text text-anchor="start" x="420" y="-342.9" font-family="Times,serif" font-size="14.00">person_id :integer</text>
<text text-anchor="start" x="420" y="-327.9" font-family="Times,serif" font-size="14.00">occupation_type :string</text>
<text text-anchor="start" x="420" y="-312.9" font-family="Times,serif" font-size="14.00">primary :boolean</text>
</g>
<!-- Film&#45;&gt;Occupation -->
<g id="edge10" class="edge"><title>Film&#45;&gt;Occupation</title>
<path fill="none" stroke="#f98802" d="M267.491,-447.742C266.786,-436.42 269.009,-425.426 276,-416 291.559,-395.022 350.48,-378.224 402.117,-367.111"/>
<polygon fill="#f98802" stroke="#f98802" points="267.502,-447.831 264.357,-458.336 268.16,-452.788 268.818,-457.744 268.818,-457.744 268.818,-457.744 268.16,-452.788 273.279,-457.152 267.502,-447.831 267.502,-447.831"/>
<polygon fill="#f98802" stroke="#f98802" points="402.21,-367.091 412.922,-369.437 407.103,-366.062 411.996,-365.033 411.996,-365.033 411.996,-365.033 407.103,-366.062 411.07,-360.629 402.21,-367.091 402.21,-367.091"/>
<text text-anchor="middle" x="293" y="-418.9" font-family="Times,serif" font-size="14.00">actors</text>
</g>
<!-- Film&#45;&gt;Occupation -->
<g id="edge12" class="edge"><title>Film&#45;&gt;Occupation</title>
<path fill="none" stroke="#d4ccd6" d="M314.911,-447.969C319.152,-436.335 324.987,-425.185 333,-416 351.059,-395.3 376.885,-381.152 402.241,-371.544"/>
<polygon fill="#d4ccd6" stroke="#d4ccd6" points="314.799,-448.311 307.43,-456.432 313.255,-453.067 311.71,-457.822 311.71,-457.822 311.71,-457.822 313.255,-453.067 315.99,-459.212 314.799,-448.311 314.799,-448.311"/>
<polygon fill="#d4ccd6" stroke="#d4ccd6" points="402.503,-371.45 413.435,-372.316 407.211,-369.765 411.918,-368.079 411.918,-368.079 411.918,-368.079 407.211,-369.765 410.401,-363.843 402.503,-371.45 402.503,-371.45"/>
<text text-anchor="middle" x="359" y="-418.9" font-family="Times,serif" font-size="14.00">directors</text>
</g>
<!-- Film&#45;&gt;Occupation -->
<g id="edge14" class="edge"><title>Film&#45;&gt;Occupation</title>
<path fill="none" stroke="#c3e4ec" d="M372.938,-450.404C384.394,-438.628 396.344,-426.797 408,-416 412.231,-412.081 416.668,-408.12 421.191,-404.191"/>
<polygon fill="#c3e4ec" stroke="#c3e4ec" points="372.822,-450.525 362.639,-454.594 369.349,-454.122 365.876,-457.719 365.876,-457.719 365.876,-457.719 369.349,-454.122 369.114,-460.845 372.822,-450.525 372.822,-450.525"/>
<polygon fill="#c3e4ec" stroke="#c3e4ec" points="421.266,-404.128 431.788,-401.042 425.064,-400.876 428.862,-397.623 428.862,-397.623 428.862,-397.623 425.064,-400.876 425.935,-394.205 421.266,-404.128 421.266,-404.128"/>
<text text-anchor="middle" x="436.5" y="-418.9" font-family="Times,serif" font-size="14.00">producers</text>
</g>
<!-- Film&#45;&gt;Occupation -->
<g id="edge16" class="edge"><title>Film&#45;&gt;Occupation</title>
<path fill="none" stroke="#5c4aea" d="M386.123,-493.671C414.729,-478.758 444.709,-458.397 465,-432 470.609,-424.703 474.788,-416.066 477.902,-407.211"/>
<polygon fill="#5c4aea" stroke="#5c4aea" points="385.827,-493.82 374.872,-494.304 381.363,-496.071 376.898,-498.322 376.898,-498.322 376.898,-498.322 381.363,-496.071 378.924,-502.34 385.827,-493.82 385.827,-493.82"/>
<polygon fill="#5c4aea" stroke="#5c4aea" points="477.929,-407.126 485.18,-398.9 479.405,-402.349 480.881,-397.571 480.881,-397.571 480.881,-397.571 479.405,-402.349 476.581,-396.243 477.929,-407.126 477.929,-407.126"/>
<text text-anchor="middle" x="494" y="-418.9" font-family="Times,serif" font-size="14.00">writers</text>
</g>
<!-- Occupation&#45;&gt;Actor -->
<g id="edge4" class="edge"><title>Occupation&#45;&gt;Actor</title>
<path fill="none" stroke="black" d="M434.116,-306.167C419.692,-293.667 404.07,-280.128 389.659,-267.638"/>
</g>
<!-- Occupation&#45;&gt;Director -->
<g id="edge6" class="edge"><title>Occupation&#45;&gt;Director</title>
<path fill="none" stroke="black" d="M493.346,-306.167C495.067,-293.74 496.93,-280.286 498.651,-267.857"/>
</g>
<!-- Occupation&#45;&gt;Film -->
<g id="edge24" class="edge"><title>Occupation&#45;&gt;Film</title>
<path fill="none" stroke="#badc81" d="M522.203,-407.282C523.809,-415.859 522.97,-424.388 518,-432 513.94,-438.219 444.521,-468.073 385.834,-492.492"/>
<polygon fill="#badc81" stroke="#badc81" points="522.191,-407.24 523.768,-396.388 520.816,-402.432 519.441,-397.625 519.441,-397.625 519.441,-397.625 520.816,-402.432 515.115,-398.862 522.191,-407.24 522.191,-407.24"/>
<polygon fill="#badc81" stroke="#badc81" points="385.755,-492.525 374.793,-492.204 381.137,-494.443 376.519,-496.36 376.519,-496.36 376.519,-496.36 381.137,-494.443 378.245,-500.516 385.755,-492.525 385.755,-492.525"/>
</g>
<!-- Occupation&#45;&gt;FilmOccupation -->
<g id="edge22" class="edge"><title>Occupation&#45;&gt;FilmOccupation</title>
<path fill="none" stroke="#9e7c88" d="M404.211,-326.033C358.83,-310.871 302.003,-290.352 253,-268 250.661,-266.933 248.299,-265.823 245.927,-264.68"/>
<ellipse fill="none" stroke="#9e7c88" cx="408.173" cy="-327.349" rx="4.00001" ry="4.00001"/>
<polygon fill="#9e7c88" stroke="#9e7c88" points="245.703,-264.569 238.746,-256.093 241.225,-262.347 236.746,-260.124 236.746,-260.124 236.746,-260.124 241.225,-262.347 234.745,-264.155 245.703,-264.569 245.703,-264.569"/>
</g>
<!-- Producer -->
<g id="node10" class="node"><title>Producer</title>
<polyline fill="none" stroke="black" points="610,-176.5 736,-176.5 "/>
<path fill="none" stroke="black" d="M736,-176.5C742,-176.5 748,-182.5 748,-188.5"/>
<polyline fill="none" stroke="black" points="748,-188.5 748,-255.5 "/>
<path fill="none" stroke="black" d="M748,-255.5C748,-261.5 742,-267.5 736,-267.5"/>
<polyline fill="none" stroke="black" points="736,-267.5 610,-267.5 "/>
<path fill="none" stroke="black" d="M610,-267.5C604,-267.5 598,-261.5 598,-255.5"/>
<polyline fill="none" stroke="black" points="598,-255.5 598,-188.5 "/>
<path fill="none" stroke="black" d="M598,-188.5C598,-182.5 604,-176.5 610,-176.5"/>
<text text-anchor="middle" x="673" y="-250.9" font-family="Times,serif" font-size="14.00">Producer</text>
<polyline fill="none" stroke="black" points="598,-244.5 748,-244.5 "/>
<text text-anchor="start" x="606" y="-227.9" font-family="Times,serif" font-size="14.00">id :integer</text>
<text text-anchor="start" x="606" y="-212.9" font-family="Times,serif" font-size="14.00">person_id :integer</text>
<text text-anchor="start" x="606" y="-197.9" font-family="Times,serif" font-size="14.00">occupation_type :string</text>
<text text-anchor="start" x="606" y="-182.9" font-family="Times,serif" font-size="14.00">primary :boolean</text>
</g>
<!-- Occupation&#45;&gt;Producer -->
<g id="edge28" class="edge"><title>Occupation&#45;&gt;Producer</title>
<path fill="none" stroke="black" d="M552.315,-306.35C570.319,-293.766 589.847,-280.118 607.842,-267.54"/>
</g>
<!-- Writer -->
<g id="node11" class="node"><title>Writer</title>
<polyline fill="none" stroke="black" points="778,-176.5 904,-176.5 "/>
<path fill="none" stroke="black" d="M904,-176.5C910,-176.5 916,-182.5 916,-188.5"/>
<polyline fill="none" stroke="black" points="916,-188.5 916,-255.5 "/>
<path fill="none" stroke="black" d="M916,-255.5C916,-261.5 910,-267.5 904,-267.5"/>
<polyline fill="none" stroke="black" points="904,-267.5 778,-267.5 "/>
<path fill="none" stroke="black" d="M778,-267.5C772,-267.5 766,-261.5 766,-255.5"/>
<polyline fill="none" stroke="black" points="766,-255.5 766,-188.5 "/>
<path fill="none" stroke="black" d="M766,-188.5C766,-182.5 772,-176.5 778,-176.5"/>
<text text-anchor="middle" x="841" y="-250.9" font-family="Times,serif" font-size="14.00">Writer</text>
<polyline fill="none" stroke="black" points="766,-244.5 916,-244.5 "/>
<text text-anchor="start" x="774" y="-227.9" font-family="Times,serif" font-size="14.00">id :integer</text>
<text text-anchor="start" x="774" y="-212.9" font-family="Times,serif" font-size="14.00">person_id :integer</text>
<text text-anchor="start" x="774" y="-197.9" font-family="Times,serif" font-size="14.00">occupation_type :string</text>
<text text-anchor="start" x="774" y="-182.9" font-family="Times,serif" font-size="14.00">primary :boolean</text>
</g>
<!-- Occupation&#45;&gt;Writer -->
<g id="edge30" class="edge"><title>Occupation&#45;&gt;Writer</title>
<path fill="none" stroke="black" d="M562.055,-332.984C617.042,-318.017 692.942,-295.183 757,-268 759.908,-266.766 762.847,-265.462 765.797,-264.104"/>
</g>
<!-- Person -->
<g id="node9" class="node"><title>Person</title>
<polyline fill="none" stroke="black" points="511,-450.5 623,-450.5 "/>
<path fill="none" stroke="black" d="M623,-450.5C629,-450.5 635,-456.5 635,-462.5"/>
<polyline fill="none" stroke="black" points="635,-462.5 635,-589.5 "/>
<path fill="none" stroke="black" d="M635,-589.5C635,-595.5 629,-601.5 623,-601.5"/>
<polyline fill="none" stroke="black" points="623,-601.5 511,-601.5 "/>
<path fill="none" stroke="black" d="M511,-601.5C505,-601.5 499,-595.5 499,-589.5"/>
<polyline fill="none" stroke="black" points="499,-589.5 499,-462.5 "/>
<path fill="none" stroke="black" d="M499,-462.5C499,-456.5 505,-450.5 511,-450.5"/>
<text text-anchor="middle" x="567" y="-584.9" font-family="Times,serif" font-size="14.00">Person</text>
<polyline fill="none" stroke="black" points="499,-578.5 635,-578.5 "/>
<text text-anchor="start" x="507" y="-561.9" font-family="Times,serif" font-size="14.00">id :integer</text>
<text text-anchor="start" x="507" y="-546.9" font-family="Times,serif" font-size="14.00">name :string</text>
<text text-anchor="start" x="507" y="-531.9" font-family="Times,serif" font-size="14.00">birth_name :string</text>
<text text-anchor="start" x="507" y="-516.9" font-family="Times,serif" font-size="14.00">birth_date :datetime</text>
<text text-anchor="start" x="507" y="-501.9" font-family="Times,serif" font-size="14.00">birth_location :string</text>
<text text-anchor="start" x="507" y="-486.9" font-family="Times,serif" font-size="14.00">biography :text</text>
<text text-anchor="start" x="507" y="-471.9" font-family="Times,serif" font-size="14.00">created_at :datetime</text>
<text text-anchor="start" x="507" y="-456.9" font-family="Times,serif" font-size="14.00">updated_at :datetime</text>
</g>
<!-- Person&#45;&gt;Occupation -->
<g id="edge26" class="edge"><title>Person&#45;&gt;Occupation</title>
<path fill="none" stroke="#9dfa49" d="M562.415,-442.27C560.152,-433.135 557.096,-424.19 553,-416 551.243,-412.487 549.214,-409.058 546.982,-405.729"/>
<ellipse fill="none" stroke="#9dfa49" cx="563.339" cy="-446.428" rx="4.00001" ry="4.00001"/>
<polygon fill="#9dfa49" stroke="#9dfa49" points="546.979,-405.725 544.677,-395.003 544.016,-401.698 541.052,-397.67 541.052,-397.67 541.052,-397.67 544.016,-401.698 537.428,-400.337 546.979,-405.725 546.979,-405.725"/>
</g>
</g>
</svg>
