<?xml version="1.0" encoding="UTF-8" standalone="no"?>
<!DOCTYPE svg PUBLIC "-//W3C//DTD SVG 1.1//EN"
 "http://www.w3.org/Graphics/SVG/1.1/DTD/svg11.dtd">
<!-- Generated by graphviz version 2.26.3 (20100126.1600)
 -->
<!-- Title: models_diagram Pages: 1 -->
<svg width="637pt" height="322pt"
 viewBox="0.00 0.00 637.00 322.00" xmlns="http://www.w3.org/2000/svg" xmlns:xlink="http://www.w3.org/1999/xlink">
<g id="graph1" class="graph" transform="scale(1 1) rotate(0) translate(4 318)">
<title>models_diagram</title>
<polygon fill="white" stroke="white" points="-4,5 -4,-318 634,-318 634,5 -4,5"/>
<!-- _diagram_info -->
<g id="node1" class="node"><title>_diagram_info</title>
<text text-anchor="start" x="7.5" y="-298.3" font-family="Times,serif" font-size="13.00">Models diagram</text>
<text text-anchor="start" x="7.5" y="-284.3" font-family="Times,serif" font-size="13.00">Date: Apr 23 2013 &#45; 13:04</text>
<text text-anchor="start" x="7.5" y="-270.3" font-family="Times,serif" font-size="13.00">Migration version: 20130423162618</text>
<text text-anchor="start" x="7.5" y="-256.3" font-family="Times,serif" font-size="13.00">Generated by RailRoady 1.1.0</text>
<text text-anchor="start" x="7.5" y="-242.3" font-family="Times,serif" font-size="13.00">http://railroady.prestonlee.com</text>
</g>
<!-- Actor -->
<g id="node2" class="node"><title>Actor</title>
<ellipse fill="none" stroke="black" cx="299" cy="-92" rx="31.9972" ry="18"/>
<text text-anchor="middle" x="299" y="-86.9" font-family="Times,serif" font-size="14.00">Actor</text>
</g>
<!-- Character -->
<g id="node3" class="node"><title>Character</title>
<ellipse fill="none" stroke="black" cx="138" cy="-18" rx="46.1459" ry="18"/>
<text text-anchor="middle" x="138" y="-12.9" font-family="Times,serif" font-size="14.00">Character</text>
</g>
<!-- Actor&#45;&gt;Character -->
<g id="edge2" class="edge"><title>Actor&#45;&gt;Character</title>
<path fill="none" stroke="#b08032" d="M266.812,-77.2054C241.061,-65.3697 204.843,-48.7227 177.366,-36.0939"/>
<ellipse fill="none" stroke="#b08032" cx="270.562" cy="-78.9291" rx="4.00002" ry="4.00002"/>
<polygon fill="#b08032" stroke="#b08032" points="177.13,-35.9853 169.923,-27.7202 172.587,-33.8972 168.044,-31.809 168.044,-31.809 168.044,-31.809 172.587,-33.8972 166.165,-35.8978 177.13,-35.9853 177.13,-35.9853"/>
</g>
<!-- Director -->
<g id="node4" class="node"><title>Director</title>
<ellipse fill="none" stroke="black" cx="391" cy="-92" rx="42.2463" ry="18"/>
<text text-anchor="middle" x="391" y="-86.9" font-family="Times,serif" font-size="14.00">Director</text>
</g>
<!-- Film -->
<g id="node5" class="node"><title>Film</title>
<ellipse fill="none" stroke="black" cx="261" cy="-275" rx="29.2474" ry="18"/>
<text text-anchor="middle" x="261" y="-269.9" font-family="Times,serif" font-size="14.00">Film</text>
</g>
<!-- Film&#45;&gt;Character -->
<g id="edge18" class="edge"><title>Film&#45;&gt;Character</title>
<path fill="none" stroke="#01af5c" d="M242.194,-253.052C236.416,-247.072 229.782,-240.899 223,-236 208.176,-225.292 200.397,-229.276 186,-218 136.809,-179.474 117.27,-168.75 96,-110 90.5532,-94.9557 90.9404,-89.1789 96,-74 99.7662,-62.7014 106.804,-51.8468 114.056,-42.752"/>
<ellipse fill="none" stroke="#01af5c" cx="244.933" cy="-255.989" rx="4.00002" ry="4.00002"/>
<polygon fill="#01af5c" stroke="#01af5c" points="114.221,-42.5581 124.121,-37.8429 117.455,-38.7451 120.689,-34.932 120.689,-34.932 120.689,-34.932 117.455,-38.7451 117.258,-32.0211 114.221,-42.5581 114.221,-42.5581"/>
</g>
<!-- FilmOccupation -->
<g id="node6" class="node"><title>FilmOccupation</title>
<ellipse fill="none" stroke="black" cx="177" cy="-92" rx="72.1436" ry="18"/>
<text text-anchor="middle" x="177" y="-86.9" font-family="Times,serif" font-size="14.00">FilmOccupation</text>
</g>
<!-- Film&#45;&gt;FilmOccupation -->
<g id="edge8" class="edge"><title>Film&#45;&gt;FilmOccupation</title>
<path fill="none" stroke="#3af9c4" d="M239.823,-253.253C214.351,-227.04 174.872,-186.198 174,-184 165.935,-163.664 167.353,-138.77 170.419,-120.007"/>
<ellipse fill="none" stroke="#3af9c4" cx="242.863" cy="-256.381" rx="4.00002" ry="4.00002"/>
<polygon fill="#3af9c4" stroke="#3af9c4" points="170.45,-119.844 176.72,-110.848 171.374,-114.93 172.298,-110.016 172.298,-110.016 172.298,-110.016 171.374,-114.93 167.876,-109.184 170.45,-119.844 170.45,-119.844"/>
</g>
<!-- Genre -->
<g id="node7" class="node"><title>Genre</title>
<ellipse fill="none" stroke="black" cx="217" cy="-166" rx="33.797" ry="18"/>
<text text-anchor="middle" x="217" y="-160.9" font-family="Times,serif" font-size="14.00">Genre</text>
</g>
<!-- Film&#45;&gt;Genre -->
<g id="edge20" class="edge"><title>Film&#45;&gt;Genre</title>
<path fill="none" stroke="#97c323" d="M239.005,-252.198C227.751,-239.924 215.828,-225.75 213,-218 210.237,-210.43 209.879,-201.838 210.587,-193.851"/>
<polygon fill="#97c323" stroke="#97c323" points="239.016,-252.21 242.549,-262.591 242.427,-255.865 245.839,-259.521 245.839,-259.521 245.839,-259.521 242.427,-255.865 249.128,-256.451 239.016,-252.21 239.016,-252.21"/>
<polygon fill="#97c323" stroke="#97c323" points="210.604,-193.734 216.475,-184.472 211.312,-188.784 212.02,-183.835 212.02,-183.835 212.02,-183.835 211.312,-188.784 207.565,-183.197 210.604,-193.734 210.604,-193.734"/>
</g>
<!-- Occupation -->
<g id="node8" class="node"><title>Occupation</title>
<ellipse fill="none" stroke="black" cx="391" cy="-166" rx="53.9452" ry="18"/>
<text text-anchor="middle" x="391" y="-160.9" font-family="Times,serif" font-size="14.00">Occupation</text>
</g>
<!-- Film&#45;&gt;Occupation -->
<g id="edge10" class="edge"><title>Film&#45;&gt;Occupation</title>
<path fill="none" stroke="#cdf464" d="M240.197,-250.667C229.829,-235.481 221.678,-216.192 233,-202 245.079,-186.859 289.875,-177.591 328.698,-172.258"/>
<polygon fill="#cdf464" stroke="#cdf464" points="240.469,-251.033 242.813,-261.746 243.448,-255.049 246.427,-259.065 246.427,-259.065 246.427,-259.065 243.448,-255.049 250.041,-256.384 240.469,-251.033 240.469,-251.033"/>
<polygon fill="#cdf464" stroke="#cdf464" points="329.019,-172.216 339.517,-175.383 333.977,-171.569 338.935,-170.921 338.935,-170.921 338.935,-170.921 333.977,-171.569 338.352,-166.459 329.019,-172.216 329.019,-172.216"/>
<text text-anchor="middle" x="250" y="-204.9" font-family="Times,serif" font-size="14.00">actors</text>
</g>
<!-- Film&#45;&gt;Occupation -->
<g id="edge12" class="edge"><title>Film&#45;&gt;Occupation</title>
<path fill="none" stroke="#91df93" d="M266.2,-247.143C270.331,-232.014 277.561,-214.002 290,-202 301.926,-190.493 317.771,-182.636 333.367,-177.281"/>
<polygon fill="#91df93" stroke="#91df93" points="266.156,-247.327 259.436,-255.992 264.983,-252.187 263.81,-257.047 263.81,-257.047 263.81,-257.047 264.983,-252.187 268.184,-258.103 266.156,-247.327 266.156,-247.327"/>
<polygon fill="#91df93" stroke="#91df93" points="333.467,-177.25 344.355,-178.555 338.238,-175.755 343.009,-174.261 343.009,-174.261 343.009,-174.261 338.238,-175.755 341.664,-169.966 333.467,-177.25 333.467,-177.25"/>
<text text-anchor="middle" x="316" y="-204.9" font-family="Times,serif" font-size="14.00">directors</text>
</g>
<!-- Film&#45;&gt;Occupation -->
<g id="edge14" class="edge"><title>Film&#45;&gt;Occupation</title>
<path fill="none" stroke="#ddfeda" d="M289.89,-256.739C305.839,-246.158 325.664,-232.159 342,-218 351.425,-209.831 361.005,-200.057 369.165,-191.2"/>
<polygon fill="#ddfeda" stroke="#ddfeda" points="289.844,-256.77 279.012,-258.48 285.66,-259.508 281.476,-262.246 281.476,-262.246 281.476,-262.246 285.66,-259.508 283.94,-266.011 289.844,-256.77 289.844,-256.77"/>
<polygon fill="#ddfeda" stroke="#ddfeda" points="369.224,-191.133 379.268,-186.732 372.577,-187.424 375.93,-183.715 375.93,-183.715 375.93,-183.715 372.577,-187.424 372.591,-180.697 369.224,-191.133 369.224,-191.133"/>
<text text-anchor="middle" x="385.5" y="-204.9" font-family="Times,serif" font-size="14.00">producers</text>
</g>
<!-- Film&#45;&gt;Occupation -->
<g id="edge16" class="edge"><title>Film&#45;&gt;Occupation</title>
<path fill="none" stroke="#feb633" d="M298.499,-266.605C340.324,-256.392 403.971,-238.018 418,-218 423.84,-209.667 420.993,-199.907 415.357,-191.107"/>
<polygon fill="#feb633" stroke="#feb633" points="298.365,-266.637 287.593,-264.584 293.502,-267.799 288.639,-268.961 288.639,-268.961 288.639,-268.961 293.502,-267.799 289.684,-273.338 298.365,-266.637 298.365,-266.637"/>
<polygon fill="#feb633" stroke="#feb633" points="415.302,-191.034 412.888,-180.337 412.297,-187.038 409.291,-183.042 409.291,-183.042 409.291,-183.042 412.297,-187.038 405.695,-185.747 415.302,-191.034 415.302,-191.034"/>
<text text-anchor="middle" x="441" y="-204.9" font-family="Times,serif" font-size="14.00">writers</text>
</g>
<!-- Occupation&#45;&gt;Actor -->
<g id="edge4" class="edge"><title>Occupation&#45;&gt;Actor</title>
<path fill="none" stroke="black" d="M370.124,-149.208C354.325,-136.501 332.823,-119.206 317.609,-106.968"/>
</g>
<!-- Occupation&#45;&gt;Director -->
<g id="edge6" class="edge"><title>Occupation&#45;&gt;Director</title>
<path fill="none" stroke="black" d="M391,-147.708C391,-136.238 391,-121.512 391,-110.082"/>
</g>
<!-- Occupation&#45;&gt;Film -->
<g id="edge24" class="edge"><title>Occupation&#45;&gt;Film</title>
<path fill="none" stroke="#b2a64c" d="M441.056,-181.703C460.815,-190.605 476.401,-202.977 465,-218 445.097,-244.226 353.23,-261.651 299.809,-269.756"/>
<polygon fill="#b2a64c" stroke="#b2a64c" points="441.007,-181.682 433.486,-173.701 436.386,-179.771 431.766,-177.859 431.766,-177.859 431.766,-177.859 436.386,-179.771 430.046,-182.018 441.007,-181.682 441.007,-181.682"/>
<polygon fill="#b2a64c" stroke="#b2a64c" points="299.563,-269.792 289.013,-266.801 294.617,-270.522 289.67,-271.252 289.67,-271.252 289.67,-271.252 294.617,-270.522 290.327,-275.704 299.563,-269.792 299.563,-269.792"/>
</g>
<!-- Occupation&#45;&gt;FilmOccupation -->
<g id="edge22" class="edge"><title>Occupation&#45;&gt;FilmOccupation</title>
<path fill="none" stroke="#2fba9f" d="M345.525,-150.275C311.474,-138.501 264.834,-122.373 229.251,-110.068"/>
<ellipse fill="none" stroke="#2fba9f" cx="349.453" cy="-151.633" rx="4.00001" ry="4.00001"/>
<polygon fill="#2fba9f" stroke="#2fba9f" points="228.978,-109.974 220.998,-102.453 224.253,-108.34 219.527,-106.706 219.527,-106.706 219.527,-106.706 224.253,-108.34 218.057,-110.959 228.978,-109.974 228.978,-109.974"/>
</g>
<!-- Producer -->
<g id="node10" class="node"><title>Producer</title>
<ellipse fill="none" stroke="black" cx="496" cy="-92" rx="44.846" ry="18"/>
<text text-anchor="middle" x="496" y="-86.9" font-family="Times,serif" font-size="14.00">Producer</text>
</g>
<!-- Occupation&#45;&gt;Producer -->
<g id="edge28" class="edge"><title>Occupation&#45;&gt;Producer</title>
<path fill="none" stroke="black" d="M414.303,-149.577C431.945,-137.144 456.036,-120.165 473.483,-107.869"/>
</g>
<!-- Writer -->
<g id="node11" class="node"><title>Writer</title>
<ellipse fill="none" stroke="black" cx="594" cy="-92" rx="35.0969" ry="18"/>
<text text-anchor="middle" x="594" y="-86.9" font-family="Times,serif" font-size="14.00">Writer</text>
</g>
<!-- Occupation&#45;&gt;Writer -->
<g id="edge30" class="edge"><title>Occupation&#45;&gt;Writer</title>
<path fill="none" stroke="black" d="M429.102,-153.175C461.433,-142.151 508.969,-125.607 550,-110 555.4,-107.946 561.137,-105.669 566.622,-103.446"/>
</g>
<!-- Person -->
<g id="node9" class="node"><title>Person</title>
<ellipse fill="none" stroke="black" cx="524" cy="-275" rx="35.8982" ry="18"/>
<text text-anchor="middle" x="524" y="-269.9" font-family="Times,serif" font-size="14.00">Person</text>
</g>
<!-- Person&#45;&gt;Occupation -->
<g id="edge26" class="edge"><title>Person&#45;&gt;Occupation</title>
<path fill="none" stroke="#d26313" d="M513.834,-249.855C506.443,-234.286 495.091,-214.877 480,-202 469.492,-193.034 456.46,-186.1 443.64,-180.823"/>
<ellipse fill="none" stroke="#d26313" cx="515.489" cy="-253.502" rx="4.00002" ry="4.00002"/>
<polygon fill="#d26313" stroke="#d26313" points="443.262,-180.678 435.531,-172.901 438.592,-178.891 433.923,-177.104 433.923,-177.104 433.923,-177.104 438.592,-178.891 432.314,-181.306 443.262,-180.678 443.262,-180.678"/>
</g>
</g>
</svg>
